<svg xmlns="http://www.w3.org/2000/svg" viewBox="0 0 100 100">
  <defs>
    <linearGradient id="bgGrad" x1="0%" y1="0%" x2="100%" y2="100%">
      <stop offset="0%" stop-color="#ff0080" />
      <stop offset="50%" stop-color="#8b5cf6" />
      <stop offset="100%" stop-color="#40e0d0" />
    </linearGradient>
    <filter id="shadow">
      <feDropShadow dx="0" dy="2" stdDeviation="2" flood-opacity="0.2" />
    </filter>
  </defs>
  <rect width="100" height="100" rx="24" fill="url(#bgGrad)" />
  <g transform="translate(50, 50) scale(2.6) translate(-12, -12)" fill="white" filter="url(#shadow)">
    <path d="M21.67,18.17l-5.3-5.3h-0.99l-2.54,2.54v0.99l5.3,5.3c0.39,0.39,1.02,0.39,1.41,0l2.12-2.12 C22.06,19.2,22.06,18.56,21.67,18.17z M17.34,10.19l1.41-1.41l2.12,2.12c1.17-1.17,1.17-3.07,0-4.24l-3.54-3.54 c-1.17-1.17-3.07-1.17-4.24,0l-2.12,2.12l1.41,1.41L11.26,7.77l-1.41,1.41l1.41,1.41l-1.06,1.06L3.45,4.86L2.04,6.27l6.78,6.78 C8.44,13.43,8.19,13.9,8,14.41c-0.27,0.72-0.34,1.46-0.2,2.15l-4.59,4.59c-0.39,0.39-0.39,1.02,0,1.41l2.12,2.12 c0.39,0.39,1.02,0.39,1.41,0l4.59-4.59c0.69,0.14,1.43,0.07,2.15-0.2c0.5-0.19,0.98-0.45,1.37-0.82l6.78,6.78l1.41-1.41l-6.78-6.78 l1.06-1.06l1.41,1.41l1.41-1.41L17.34,10.19z M12.82,14.65c-1.17,1.17-3.07,1.17-4.24,0c-1.17-1.17-1.17-3.07,0-4.24 c1.17-1.17,3.07-1.17,4.24,0C13.99,11.58,13.99,13.48,12.82,14.65z"/>
  </g>
</svg>